# xmcd CD database file
#
# Track frame offsets:
#	150
#	20854
#	42953
#	61645
#	78853
#	98352
#	121787
#	136351
#	154653
#	179210
#	201450
#	224009
#	244058
#	261551
#	283589
#	306601
#	332109
#
# Disc length: 4707 seconds
#
# Revision: 2
# Processed by: cddbd v1.5.1PL0 Copyright (c) Steve Scherf et al.
# Submitted via: CDex 1.51
#
DISCID=04126111
DTITLE=Sheryl Crow - The Very Best Of Sheryl Crow
DYEAR=2003
DGENRE=Rock
TTITLE0=All I Wanna Do
TTITLE1=Soak Up The Sun
TTITLE2=My Favorite Mistake
TTITLE3=The First Cut Is The Deepest
TTITLE4=Everyday Is A Winding Road
TTITLE5=Leaving Las Vegas
TTITLE6=Strong Enough
TTITLE7=Light In Your Eyes
TTITLE8=If It Make You Happy
TTITLE9=Run, Baby, Run
TTITLE10=Picture
TTITLE11=C'mon, C'mon
TTITLE12=A Change Would Do You Good
TTITLE13=Home
TTITLE14=There Goes The Neighborhood
TTITLE15=I Shall Believe
TTITLE16=Let's Get Free
EXTD=YEAR: 2003
EXTT0=
EXTT1=
EXTT2=
EXTT3=
EXTT4=
EXTT5=
EXTT6=
EXTT7=
EXTT8=
EXTT9=
EXTT10=
EXTT11=
EXTT12=
EXTT13=
EXTT14=
EXTT15=
EXTT16=
PLAYORDER=
